<svg xmlns="http://www.w3.org/2000/svg" xml:space="preserve" width="133" height="200.94"><g transform="matrix(.69 0 0 .57 66.65 91.58)"><linearGradient id="a" x1="88.45" x2="90.5" y1="2.94" y2="317.31" gradientTransform="translate(-86.73 -161.51)" gradientUnits="userSpaceOnUse"><stop offset="0%" stop-color="#4caf50"/><stop offset="8.3%" stop-color="#69c76d" stop-opacity=".9"/><stop offset="58.54%" stop-color="#4caf50" stop-opacity=".8"/><stop offset="74.48%" stop-color="#4caf50" stop-opacity=".7"/><stop offset="100%" stop-color="#6bd56f" stop-opacity=".65"/></linearGradient><filter id="b" width="148%" height="150%" x="-24%" y="-25%"><feGaussianBlur in="SourceAlpha" stdDeviation="3.5"/><feOffset dy="9" result="oBlur"/><feFlood flood-color="#000" flood-opacity=".15"/><feComposite in2="oBlur" operator="in"/><feMerge><feMergeNode/><feMergeNode in="SourceGraphic"/></feMerge></filter><path fill="url(#a)" d="M-86.73-161.51H86.73V55.82c0 26.23-10.23 50.88-27.52 66.3-17.42 15.54-46.83 39.86-56.84 39.39-10.18-.49-41.9-26.18-60.8-42.45-17.74-15.27-28.3-40.2-28.3-66.8z" filter="url(#b)" vector-effect="non-scaling-stroke"/></g><path fill="none" stroke="#fff" stroke-opacity=".9" stroke-width="8" d="M47.7 57.78a6.63 6.63 0 0 0-6.03 6.6l-.03 55.15c0 5.21 2.4 10.13 6.52 13.32l7.94-.13c5.4-.1 9.74-4.5 9.75-9.91v-14.27S98 110.46 97.32 80.42c-.61-27.36-31.7-24.27-49.62-22.64z" vector-effect="non-scaling-stroke"/><path fill="none" stroke="#000" stroke-linecap="round" stroke-linejoin="round" stroke-miterlimit="10" d="M57.14 41.45h.22" vector-effect="non-scaling-stroke"/><path fill="#fff" fill-opacity=".9" d="M66.2 76.67c-3.59-.65-7.76.89-11.31 2.24a.64.64 0 0 1-.72-.2.62.62 0 0 1-.03-.74c2.89-4.17 5.71-8.23 12.46-9.1 7.6-.96 10.68 1.53 10.68 1.53l1.22-2.53a.6.6 0 0 1 1.13.07l3.35 9.94a2.45 2.45 0 0 1-1.4 3.05l-8.8 3.56a.96.96 0 0 1-1.07-.24.94.94 0 0 1-.14-1.07l.82-1.59s-2-4.17-6.2-4.92z" vector-effect="non-scaling-stroke"/><path fill="#fff" fill-opacity=".9" d="M70.95 87.67c3.58.65 7.75-.89 11.3-2.24.26-.1.55-.02.72.2.18.2.19.5.03.74-2.89 4.17-5.71 8.23-12.46 9.1-7.6.96-10.68-1.53-10.68-1.53l-1.22 2.53a.6.6 0 0 1-1.13-.07l-3.35-9.94a2.45 2.45 0 0 1 1.4-3.05l8.8-3.56a.96.96 0 0 1 1.07.24c.27.3.33.72.14 1.07l-.82 1.59s2 4.17 6.2 4.92z" vector-effect="non-scaling-stroke"/></svg>